<?xml version="1.0" standalone="no"?>
<!DOCTYPE svg PUBLIC "-//W3C//DTD SVG 20010904//EN"
 "http://www.w3.org/TR/2001/REC-SVG-20010904/DTD/svg10.dtd">
<svg version="1.0" xmlns="http://www.w3.org/2000/svg"
 width="512.000000pt" height="512.000000pt" viewBox="0 0 512.000000 512.000000"
 preserveAspectRatio="xMidYMid meet">
<metadata>
Created by potrace 1.11, written by Peter Selinger 2001-2013
</metadata>
<g transform="translate(0.000000,512.000000) scale(0.100000,-0.100000)"
fill="#000000" stroke="none">
<path d="M1310 3805 l-1265 -1265 1265 -1265 1265 -1265 1265 1265 1265 1265
-1265 1265 -1265 1265 -1265 -1265z m2240 -300 l965 -965 -968 -968 -967 -967
-967 967 -968 968 965 965 c531 531 967 965 970 965 3 0 439 -434 970 -965z"/>
<path d="M3015 3367 c-79 -37 -164 -138 -230 -271 -54 -111 -118 -306 -131
-405 -4 -34 -12 -52 -23 -55 -14 -5 -286 -25 -337 -26 l-20 0 18 128 c26 179
27 360 3 437 -46 143 -176 198 -346 145 -170 -52 -359 -232 -359 -341 0 -40
32 -89 57 -89 9 0 55 41 102 91 119 126 204 170 276 143 59 -23 63 -174 14
-460 l-11 -61 -79 -6 c-84 -7 -132 -25 -149 -56 -13 -25 -13 -87 0 -111 14
-26 81 -43 137 -34 l46 7 -7 -44 c-4 -24 -27 -128 -51 -231 -25 -103 -45 -200
-45 -215 0 -44 23 -77 60 -90 70 -25 132 3 170 77 15 30 67 235 112 450 l14
65 85 7 c115 10 269 29 286 35 10 4 13 -18 13 -113 1 -255 76 -421 225 -495
43 -21 64 -24 150 -24 94 0 105 2 169 34 89 44 208 155 232 217 18 46 15 104
-7 130 -23 28 -52 14 -123 -59 -83 -85 -128 -109 -211 -115 -50 -3 -66 0 -95
20 -71 47 -100 149 -100 350 l0 117 74 35 c145 66 249 159 309 273 54 104 71
173 71 293 1 95 -2 110 -27 162 -38 78 -74 102 -157 106 -52 2 -75 -2 -115
-21z m142 -157 c26 -52 6 -217 -39 -309 -29 -60 -112 -142 -176 -175 -60 -30
-59 -32 -37 76 24 112 63 236 101 315 53 112 121 153 151 93z"/>
</g>
</svg>
