<svg width="133" height="42" viewBox="0 0 133 42" fill="none" xmlns="http://www.w3.org/2000/svg">
<path d="M23.4749 2.47487L21 6.55579e-07L0 21L21 42L23.4749 39.5251L4.94975 21L23.4749 2.47487Z" fill="#9933FF"/>
<path d="M18.5251 39.5251L21 42L42 21L21 6.55579e-07L18.5251 2.47487L37.0503 21L18.5251 39.5251Z" fill="#CC55FF"/>
<path d="M4.95035 21H0.0136719V21.0131L20.9875 41.9869H21.0137L23.4755 39.5251L4.95035 21Z" fill="#9933FF"/>
<path d="M27.483 23.6283C27.6117 23.6283 27.7107 23.6877 27.78 23.8065C27.8592 23.9253 27.8988 24.0886 27.8988 24.2965C27.8988 24.6826 27.8047 24.9895 27.6166 25.2171C26.6366 26.415 25.5922 27.0139 24.4834 27.0139C23.5232 27.0139 22.756 26.6427 22.1818 25.9002C21.6076 25.1577 21.3205 24.0936 21.3205 22.7076C21.3205 22.371 21.3354 22.0345 21.3651 21.6979C20.7117 21.8167 19.999 21.9058 19.2268 21.9652C18.712 22.0048 18.3606 22.0295 18.1725 22.0394C17.9745 23.0492 17.6973 24.2866 17.3409 25.7517C17.1331 26.613 16.7371 27.0436 16.153 27.0436C15.5194 27.0436 15.2027 26.7565 15.2027 26.1823C15.2027 26.0537 15.2274 25.8755 15.2769 25.6478C15.6135 24.2915 15.8808 23.1432 16.0788 22.2027L15.366 22.2324C15.0393 22.2324 14.8017 22.178 14.6532 22.0691C14.5047 21.9503 14.4305 21.7622 14.4305 21.5048C14.4305 21.1781 14.5245 20.9406 14.7126 20.7921C14.9007 20.6337 15.2126 20.5446 15.6481 20.5248L16.4351 20.4951C16.6925 19.0993 16.8212 18.0351 16.8212 17.3025C16.8212 16.8372 16.7519 16.5204 16.6133 16.3521C16.4747 16.1839 16.2916 16.0997 16.0639 16.0997C15.3709 16.0997 14.5889 16.6788 13.7177 17.8371C13.589 18.0054 13.4455 18.0895 13.2871 18.0895C13.1485 18.0895 13.0297 18.0252 12.9307 17.8965C12.8317 17.7678 12.7822 17.6044 12.7822 17.4064C12.7822 17.0996 12.906 16.7729 13.1535 16.4264C13.589 15.8225 14.1385 15.3275 14.8017 14.9415C15.465 14.5455 16.1382 14.3475 16.8212 14.3475C17.4647 14.3475 17.9597 14.5702 18.3061 15.0157C18.6625 15.4513 18.8407 16.1344 18.8407 17.0649C18.8407 17.8866 18.7219 19.0003 18.4843 20.406L19.9396 20.3317C20.5632 20.302 21.0978 20.2525 21.5433 20.1833C21.7215 19.0943 21.9937 18.0747 22.36 17.1243C22.7263 16.174 23.1816 15.4018 23.7261 14.8078C24.2706 14.2139 24.8794 13.9169 25.5526 13.9169C26.0475 13.9169 26.4386 14.1149 26.7257 14.5108C27.0128 14.8969 27.1563 15.4067 27.1563 16.0403C27.1563 18.4954 25.904 20.1981 23.3994 21.1485C23.3697 21.5444 23.3549 21.9553 23.3549 22.3809C23.3549 23.4204 23.4836 24.1579 23.741 24.5935C23.9984 25.0291 24.3597 25.2468 24.825 25.2468C25.2308 25.2468 25.6021 25.1429 25.9387 24.935C26.2752 24.7172 26.6564 24.3509 27.082 23.8362C27.2008 23.6976 27.3345 23.6283 27.483 23.6283ZM25.4783 15.2088C25.2605 15.2088 25.0279 15.4067 24.7804 15.8027C24.5428 16.1987 24.3151 16.7382 24.0974 17.4213C23.8796 18.1044 23.7063 18.8518 23.5776 19.6635C24.3696 19.3368 24.9537 18.8716 25.3298 18.2677C25.706 17.6638 25.8941 16.8867 25.8941 15.9364C25.8941 15.7087 25.8545 15.5305 25.7753 15.4018C25.6961 15.2731 25.5971 15.2088 25.4783 15.2088Z" fill="#CC55FF"/>
<path d="M64.9343 32.4425C62.8716 32.4425 61.0776 32.0698 59.5523 31.3245C58.0269 30.5618 56.8569 29.4872 56.0423 28.1005C55.2276 26.7138 54.8203 25.1018 54.8203 23.2645C54.8203 20.7165 55.2969 18.4545 56.2503 16.4785C57.2209 14.5025 58.5296 12.9772 60.1763 11.9025C61.8229 10.8105 63.6516 10.2645 65.6623 10.2645C67.5343 10.2645 68.9556 10.7498 69.9263 11.7205C70.8969 12.6738 71.3823 13.9392 71.3823 15.5165C71.3823 16.5738 71.1916 17.4232 70.8103 18.0645C70.4463 18.7058 69.9176 19.0265 69.2243 19.0265C68.7389 19.0265 68.3576 18.9138 68.0803 18.6885C67.8029 18.4632 67.6643 18.1338 67.6643 17.7005C67.6643 17.5445 67.6989 17.2585 67.7683 16.8425C67.8723 16.3225 67.9243 15.9065 67.9243 15.5945C67.9243 14.0172 67.0836 13.2285 65.4023 13.2285C64.2583 13.2285 63.1663 13.6012 62.1263 14.3465C61.0863 15.0918 60.2456 16.1925 59.6043 17.6485C58.9629 19.0872 58.6423 20.8032 58.6423 22.7965C58.6423 24.8765 59.2229 26.4885 60.3843 27.6325C61.5456 28.7592 63.2616 29.3225 65.5323 29.3225C66.6589 29.3225 67.7943 29.1838 68.9383 28.9065C70.0996 28.6118 71.3823 28.1698 72.7863 27.5805C73.0463 27.4765 73.2629 27.4245 73.4363 27.4245C73.7136 27.4245 73.9216 27.5285 74.0603 27.7365C74.1989 27.9445 74.2683 28.2132 74.2683 28.5425C74.2683 29.5998 73.6963 30.3798 72.5523 30.8825C71.3216 31.4198 70.0389 31.8185 68.7043 32.0785C67.3869 32.3212 66.1303 32.4425 64.9343 32.4425ZM85.2346 24.3305C85.4599 24.3305 85.6332 24.4432 85.7546 24.6685C85.8759 24.8938 85.9366 25.1798 85.9366 25.5265C85.9366 26.3585 85.6852 26.8525 85.1826 27.0085C84.1426 27.3725 82.9986 27.5805 81.7506 27.6325C81.4212 29.0885 80.7712 30.2585 79.8006 31.1425C78.8299 32.0092 77.7292 32.4425 76.4986 32.4425C75.4586 32.4425 74.5659 32.1912 73.8206 31.6885C73.0926 31.1858 72.5379 30.5185 72.1566 29.6865C71.7752 28.8545 71.5846 27.9532 71.5846 26.9825C71.5846 25.6652 71.8359 24.4952 72.3386 23.4725C72.8412 22.4325 73.5346 21.6265 74.4186 21.0545C75.3026 20.4652 76.2819 20.1705 77.3566 20.1705C78.6739 20.1705 79.7312 20.6298 80.5286 21.5485C81.3432 22.4498 81.8199 23.5678 81.9586 24.9025C82.7732 24.8505 83.7439 24.6772 84.8706 24.3825C85.0092 24.3478 85.1306 24.3305 85.2346 24.3305ZM76.7066 29.6865C77.2612 29.6865 77.7379 29.4612 78.1366 29.0105C78.5526 28.5598 78.8299 27.9098 78.9686 27.0605C78.4312 26.6965 78.0152 26.2198 77.7206 25.6305C77.4432 25.0412 77.3046 24.4172 77.3046 23.7585C77.3046 23.4812 77.3306 23.2038 77.3826 22.9265H77.2526C76.5592 22.9265 75.9786 23.2645 75.5106 23.9405C75.0599 24.5992 74.8346 25.5352 74.8346 26.7485C74.8346 27.7018 75.0166 28.4298 75.3806 28.9325C75.7619 29.4352 76.2039 29.6865 76.7066 29.6865ZM86.357 32.4425C85.577 32.4425 84.9357 32.0872 84.433 31.3765C83.9477 30.6485 83.705 29.7472 83.705 28.6725C83.705 27.3725 83.7917 26.1852 83.965 25.1105C84.1384 24.0185 84.4244 22.8658 84.823 21.6525C84.9964 21.1325 85.239 20.7598 85.551 20.5345C85.863 20.3092 86.357 20.1965 87.033 20.1965C87.4144 20.1965 87.6744 20.2572 87.813 20.3785C87.969 20.4998 88.047 20.6818 88.047 20.9245C88.047 21.0632 87.9517 21.5312 87.761 22.3285C87.5877 22.9698 87.449 23.5505 87.345 24.0705C86.9984 25.8905 86.825 27.1038 86.825 27.7105C86.825 28.0745 86.8684 28.3345 86.955 28.4905C87.0417 28.6292 87.1804 28.6985 87.371 28.6985C87.631 28.6985 87.9517 28.4385 88.333 27.9185C88.7317 27.3985 89.1477 26.6098 89.581 25.5525C90.0317 24.4952 90.465 23.1952 90.881 21.6525C91.0197 21.1325 91.2277 20.7598 91.505 20.5345C91.7997 20.3092 92.233 20.1965 92.805 20.1965C93.2037 20.1965 93.481 20.2485 93.637 20.3525C93.793 20.4392 93.871 20.6125 93.871 20.8725C93.871 21.3058 93.6544 22.4932 93.221 24.4345C92.7357 26.6532 92.493 28.0225 92.493 28.5425C92.493 28.8718 92.5624 29.1318 92.701 29.3225C92.8397 29.4958 93.0217 29.5825 93.247 29.5825C93.5937 29.5825 94.001 29.3745 94.469 28.9585C94.9544 28.5252 95.5957 27.8318 96.393 26.8785C96.601 26.6358 96.835 26.5145 97.095 26.5145C97.3204 26.5145 97.4937 26.6185 97.615 26.8265C97.7537 27.0345 97.823 27.3205 97.823 27.6845C97.823 28.3778 97.6584 28.9152 97.329 29.2965C96.5837 30.2152 95.7777 30.9692 94.911 31.5585C94.0617 32.1478 93.091 32.4425 91.999 32.4425C91.167 32.4425 90.5517 32.1218 90.153 31.4805C89.7717 30.8392 89.581 29.9378 89.581 28.7765C89.2864 29.9552 88.8444 30.8652 88.255 31.5065C87.6657 32.1305 87.033 32.4425 86.357 32.4425ZM106.219 23.7585C106.6 23.7585 106.921 23.8972 107.181 24.1745C107.458 24.4345 107.597 24.7638 107.597 25.1625C107.597 25.3878 107.545 25.6305 107.441 25.8905C107.163 26.5318 106.773 27.0692 106.271 27.5025C105.768 27.9358 105.213 28.1525 104.607 28.1525C104.121 28.1525 103.705 27.9792 103.359 27.6325C103.029 27.2858 102.865 26.8178 102.865 26.2285C102.865 25.8992 102.882 25.5438 102.917 25.1625C102.951 24.8852 102.969 24.6945 102.969 24.5905C102.969 24.4518 102.934 24.3478 102.865 24.2785C102.813 24.2092 102.743 24.1745 102.657 24.1745C102.414 24.1745 102.085 24.4692 101.669 25.0585C101.253 25.6305 100.837 26.3932 100.421 27.3465C100.005 28.2998 99.6668 29.3052 99.4068 30.3625C99.2161 31.1945 98.9995 31.7492 98.7568 32.0265C98.5141 32.3038 98.1155 32.4425 97.5608 32.4425C96.9021 32.4425 96.4341 32.0958 96.1568 31.4025C95.8968 30.7092 95.7668 29.5998 95.7668 28.0745C95.7668 25.8212 96.0875 23.6805 96.7288 21.6525C96.8848 21.1498 97.1361 20.7858 97.4828 20.5605C97.8468 20.3178 98.3495 20.1965 98.9908 20.1965C99.3375 20.1965 99.5801 20.2398 99.7188 20.3265C99.8575 20.4132 99.9268 20.5778 99.9268 20.8205C99.9268 21.0978 99.7968 21.7218 99.5368 22.6925C99.3635 23.3858 99.2248 23.9925 99.1208 24.5125C99.0168 25.0325 98.9301 25.6738 98.8608 26.4365C99.4328 24.9458 100.074 23.7325 100.785 22.7965C101.495 21.8605 102.189 21.1932 102.865 20.7945C103.541 20.3958 104.156 20.1965 104.711 20.1965C105.213 20.1965 105.595 20.3438 105.855 20.6385C106.132 20.9158 106.271 21.3318 106.271 21.8865C106.271 22.2158 106.175 22.8398 105.985 23.7585H106.219ZM112.764 33.0145C111.862 33.0145 111.169 32.8065 110.684 32.3905C110.216 31.9745 109.982 31.5065 109.982 30.9865C109.982 30.5358 110.146 30.1458 110.476 29.8165C110.805 29.4872 111.29 29.3225 111.932 29.3225C112.157 29.3225 112.417 29.3485 112.712 29.4005C113.024 29.4352 113.258 29.4612 113.414 29.4785C113.396 29.0278 113.292 28.6032 113.102 28.2045C112.928 27.8058 112.703 27.4245 112.426 27.0605C112.148 26.6792 111.888 26.3498 111.646 26.0725C111.108 27.0952 110.571 27.9445 110.034 28.6205C109.514 29.2965 108.942 29.9378 108.318 30.5445C108.006 30.8565 107.676 31.0125 107.33 31.0125C107.052 31.0125 106.827 30.9172 106.654 30.7265C106.48 30.5185 106.394 30.2672 106.394 29.9725C106.394 29.6258 106.515 29.3052 106.758 29.0105L107.096 28.5945C108.049 27.4158 108.768 26.4452 109.254 25.6825C109.566 25.1798 109.878 24.5818 110.19 23.8885C110.519 23.1952 110.944 22.2505 111.464 21.0545C111.793 20.2918 112.478 19.9105 113.518 19.9105C114.003 19.9105 114.341 19.9538 114.532 20.0405C114.722 20.1272 114.818 20.2658 114.818 20.4565C114.818 20.5605 114.783 20.7252 114.714 20.9505C114.644 21.1758 114.549 21.4012 114.428 21.6265C114.116 22.2505 113.96 22.7792 113.96 23.2125C113.96 23.4725 114.046 23.7585 114.22 24.0705C114.41 24.3825 114.696 24.7725 115.078 25.2405C115.632 25.9685 116.048 26.5925 116.326 27.1125C116.62 27.6152 116.768 28.1698 116.768 28.7765C116.768 29.5045 116.594 30.1978 116.248 30.8565C115.918 31.4978 115.45 32.0178 114.844 32.4165C114.237 32.8152 113.544 33.0145 112.764 33.0145Z" fill="black"/>
</svg>
