<svg width="42" height="42" viewBox="0 0 428 429" fill="none" xmlns="http://www.w3.org/2000/svg">
<path d="M240.132 29L215.132 4.00005L3 216.132L215.132 428.264L240.132 403.264L53 216.132L240.132 29Z" fill="#9933FF"/>
<path d="M190.132 403.264L215.132 428.264L427.264 216.132L215.132 4.00005L190.132 29.0001L377.264 216.132L190.132 403.264Z" fill="#CC55FF"/>
<path d="M53.0008 216.132H3.13281V216.264L215.001 428.132H215.265L240.133 403.264L53.0008 216.132Z" fill="#9933FF"/>
<path d="M280.621 242.682C281.921 242.682 282.921 243.282 283.621 244.482C284.421 245.682 284.821 247.332 284.821 249.432C284.821 253.332 283.871 256.432 281.971 258.732C272.071 270.832 261.521 276.882 250.321 276.882C240.621 276.882 232.871 273.132 227.071 265.632C221.271 258.132 218.371 247.382 218.371 233.382C218.371 229.982 218.521 226.582 218.821 223.182C212.221 224.382 205.021 225.282 197.221 225.882C192.021 226.282 188.471 226.532 186.571 226.632C184.571 236.832 181.771 249.332 178.171 264.132C176.071 272.832 172.071 277.182 166.171 277.182C159.771 277.182 156.571 274.282 156.571 268.482C156.571 267.182 156.821 265.382 157.321 263.082C160.721 249.382 163.421 237.782 165.421 228.282L158.221 228.582C154.921 228.582 152.521 228.032 151.021 226.932C149.521 225.732 148.771 223.832 148.771 221.232C148.771 217.932 149.721 215.532 151.621 214.032C153.521 212.432 156.671 211.532 161.071 211.332L169.021 211.032C171.621 196.932 172.921 186.182 172.921 178.782C172.921 174.082 172.221 170.882 170.821 169.182C169.421 167.482 167.571 166.632 165.271 166.632C158.271 166.632 150.371 172.482 141.571 184.182C140.271 185.882 138.821 186.732 137.221 186.732C135.821 186.732 134.621 186.082 133.621 184.782C132.621 183.482 132.121 181.832 132.121 179.832C132.121 176.732 133.371 173.432 135.871 169.932C140.271 163.832 145.821 158.832 152.521 154.932C159.221 150.932 166.021 148.932 172.921 148.932C179.421 148.932 184.421 151.182 187.921 155.682C191.521 160.082 193.321 166.982 193.321 176.382C193.321 184.682 192.121 195.932 189.721 210.132L204.421 209.382C210.721 209.082 216.121 208.582 220.621 207.882C222.421 196.882 225.171 186.582 228.871 176.982C232.571 167.382 237.171 159.582 242.671 153.582C248.171 147.582 254.321 144.582 261.121 144.582C266.121 144.582 270.071 146.582 272.971 150.582C275.871 154.482 277.321 159.632 277.321 166.032C277.321 190.832 264.671 208.032 239.371 217.632C239.071 221.632 238.921 225.782 238.921 230.082C238.921 240.582 240.221 248.032 242.821 252.432C245.421 256.832 249.071 259.032 253.771 259.032C257.871 259.032 261.621 257.982 265.021 255.882C268.421 253.682 272.271 249.982 276.571 244.782C277.771 243.382 279.121 242.682 280.621 242.682ZM260.371 157.632C258.171 157.632 255.821 159.632 253.321 163.632C250.921 167.632 248.621 173.082 246.421 179.982C244.221 186.882 242.471 194.432 241.171 202.632C249.171 199.332 255.071 194.632 258.871 188.532C262.671 182.432 264.571 174.582 264.571 164.982C264.571 162.682 264.171 160.882 263.371 159.582C262.571 158.282 261.571 157.632 260.371 157.632Z" fill="#CC55FF"/>
</svg>
