<svg width="190" height="42" viewBox="0 0 190 64" fill="none" xmlns="http://www.w3.org/2000/svg">
<path d="M35.7712 3.77124L32 5.47404e-07L0 32L32 64L35.7712 60.2288L7.54247 32L35.7712 3.77124Z" fill="#9933FF"/>
<path d="M28.2288 60.2288L32 64L64 32L32 5.47404e-07L28.2288 3.77124L56.4575 32L28.2288 60.2288Z" fill="#CC55FF"/>
<path d="M7.54209 32H0.0195312V32.0199L31.9797 63.9801H32.0195L35.7709 60.2288L7.54209 32Z" fill="#9933FF"/>
<path d="M41.8797 36.0049C42.0758 36.0049 42.2266 36.0954 42.3322 36.2764C42.4529 36.4574 42.5132 36.7063 42.5132 37.0231C42.5132 37.6114 42.3699 38.0791 42.0833 38.426C40.5899 40.2513 38.9984 41.1639 37.3089 41.1639C35.8457 41.1639 34.6766 40.5982 33.8017 39.4669C32.9267 38.3355 32.4893 36.7139 32.4893 34.602C32.4893 34.0891 32.5119 33.5762 32.5572 33.0633C31.5616 33.2443 30.4754 33.3801 29.2988 33.4706C28.5144 33.5309 27.9789 33.5687 27.6923 33.5837C27.3906 35.1224 26.9682 37.008 26.4251 39.2406C26.1083 40.553 25.505 41.2092 24.6149 41.2092C23.6495 41.2092 23.1668 40.7717 23.1668 39.8968C23.1668 39.7007 23.2045 39.4292 23.2799 39.0822C23.7928 37.0156 24.2001 35.2657 24.5018 33.8326L23.4157 33.8779C22.9179 33.8779 22.5558 33.7949 22.3296 33.629C22.1033 33.448 21.9902 33.1614 21.9902 32.7692C21.9902 32.2714 22.1335 31.9093 22.4201 31.683C22.7067 31.4417 23.1819 31.3059 23.8456 31.2757L25.0449 31.2305C25.4371 29.1035 25.6332 27.4819 25.6332 26.3656C25.6332 25.6566 25.5276 25.1739 25.3164 24.9174C25.1052 24.661 24.8261 24.5328 24.4792 24.5328C23.4232 24.5328 22.2315 25.4152 20.904 27.1802C20.7079 27.4366 20.4892 27.5648 20.2478 27.5648C20.0367 27.5648 19.8556 27.4668 19.7048 27.2707C19.5539 27.0746 19.4785 26.8257 19.4785 26.524C19.4785 26.0564 19.6671 25.5585 20.0442 25.0306C20.7079 24.1104 21.5452 23.3561 22.5558 22.7678C23.5665 22.1644 24.5923 21.8627 25.6332 21.8627C26.6137 21.8627 27.3679 22.2021 27.8959 22.881C28.439 23.5447 28.7105 24.5856 28.7105 26.0036C28.7105 27.2556 28.5295 28.9527 28.1674 31.0947L30.3849 30.9816C31.3353 30.9363 32.1499 30.8609 32.8287 30.7553C33.1002 29.096 33.5151 27.5422 34.0732 26.0941C34.6313 24.6459 35.3253 23.4693 36.1549 22.5642C36.9846 21.6591 37.9123 21.2065 38.9381 21.2065C39.6923 21.2065 40.2882 21.5082 40.7257 22.1116C41.1631 22.7 41.3819 23.4768 41.3819 24.4423C41.3819 28.1833 39.4736 30.7779 35.6571 32.2261C35.6119 32.8295 35.5892 33.4555 35.5892 34.1042C35.5892 35.6881 35.7853 36.8119 36.1776 37.4757C36.5698 38.1394 37.1204 38.4713 37.8294 38.4713C38.4478 38.4713 39.0135 38.3129 39.5264 37.9961C40.0393 37.6642 40.6201 37.1061 41.2687 36.3217C41.4497 36.1105 41.6534 36.0049 41.8797 36.0049ZM38.825 23.1751C38.4931 23.1751 38.1386 23.4768 37.7615 24.0802C37.3994 24.6836 37.0525 25.5058 36.7206 26.5466C36.3887 27.5875 36.1248 28.7264 35.9286 29.9634C37.1354 29.4656 38.0255 28.7566 38.5987 27.8364C39.1719 26.9162 39.4585 25.732 39.4585 24.2839C39.4585 23.9369 39.3982 23.6654 39.2775 23.4693C39.1568 23.2732 39.006 23.1751 38.825 23.1751Z" fill="#CC55FF"/>
<path d="M88.932 51.22C85.4413 51.22 82.4053 50.5893 79.824 49.328C77.2427 48.0373 75.2627 46.2187 73.884 43.872C72.5053 41.5253 71.816 38.7973 71.816 35.688C71.816 31.376 72.6227 27.548 74.236 24.204C75.8787 20.86 78.0933 18.2787 80.88 16.46C83.6667 14.612 86.7613 13.688 90.164 13.688C93.332 13.688 95.7373 14.5093 97.38 16.152C99.0227 17.7653 99.844 19.9067 99.844 22.576C99.844 24.3653 99.5213 25.8027 98.876 26.888C98.26 27.9733 97.3653 28.516 96.192 28.516C95.3707 28.516 94.7253 28.3253 94.256 27.944C93.7867 27.5627 93.552 27.0053 93.552 26.272C93.552 26.008 93.6107 25.524 93.728 24.82C93.904 23.94 93.992 23.236 93.992 22.708C93.992 20.0387 92.5693 18.704 89.724 18.704C87.788 18.704 85.94 19.3347 84.18 20.596C82.42 21.8573 80.9973 23.72 79.912 26.184C78.8267 28.6187 78.284 31.5227 78.284 34.896C78.284 38.416 79.2667 41.144 81.232 43.08C83.1973 44.9867 86.1013 45.94 89.944 45.94C91.8507 45.94 93.772 45.7053 95.708 45.236C97.6733 44.7373 99.844 43.9893 102.22 42.992C102.66 42.816 103.027 42.728 103.32 42.728C103.789 42.728 104.141 42.904 104.376 43.256C104.611 43.608 104.728 44.0627 104.728 44.62C104.728 46.4093 103.76 47.7293 101.824 48.58C99.7413 49.4893 97.5707 50.164 95.312 50.604C93.0827 51.0147 90.956 51.22 88.932 51.22ZM123.286 37.492C123.668 37.492 123.961 37.6827 124.166 38.064C124.372 38.4453 124.474 38.9293 124.474 39.516C124.474 40.924 124.049 41.76 123.198 42.024C121.438 42.64 119.502 42.992 117.39 43.08C116.833 45.544 115.733 47.524 114.09 49.02C112.448 50.4867 110.585 51.22 108.502 51.22C106.742 51.22 105.232 50.7947 103.97 49.944C102.738 49.0933 101.8 47.964 101.154 46.556C100.509 45.148 100.186 43.6227 100.186 41.98C100.186 39.7507 100.612 37.7707 101.462 36.04C102.313 34.28 103.486 32.916 104.982 31.948C106.478 30.9507 108.136 30.452 109.954 30.452C112.184 30.452 113.973 31.2293 115.322 32.784C116.701 34.3093 117.508 36.2013 117.742 38.46C119.121 38.372 120.764 38.0787 122.67 37.58C122.905 37.5213 123.11 37.492 123.286 37.492ZM108.854 46.556C109.793 46.556 110.6 46.1747 111.274 45.412C111.978 44.6493 112.448 43.5493 112.682 42.112C111.773 41.496 111.069 40.6893 110.57 39.692C110.101 38.6947 109.866 37.6387 109.866 36.524C109.866 36.0547 109.91 35.5853 109.998 35.116H109.778C108.605 35.116 107.622 35.688 106.83 36.832C106.068 37.9467 105.686 39.5307 105.686 41.584C105.686 43.1973 105.994 44.4293 106.61 45.28C107.256 46.1307 108.004 46.556 108.854 46.556ZM125.186 51.22C123.866 51.22 122.781 50.6187 121.93 49.416C121.109 48.184 120.698 46.6587 120.698 44.84C120.698 42.64 120.845 40.6307 121.138 38.812C121.431 36.964 121.915 35.0133 122.59 32.96C122.883 32.08 123.294 31.4493 123.822 31.068C124.35 30.6867 125.186 30.496 126.33 30.496C126.975 30.496 127.415 30.5987 127.65 30.804C127.914 31.0093 128.046 31.3173 128.046 31.728C128.046 31.9627 127.885 32.7547 127.562 34.104C127.269 35.1893 127.034 36.172 126.858 37.052C126.271 40.132 125.978 42.1853 125.978 43.212C125.978 43.828 126.051 44.268 126.198 44.532C126.345 44.7667 126.579 44.884 126.902 44.884C127.342 44.884 127.885 44.444 128.53 43.564C129.205 42.684 129.909 41.3493 130.642 39.56C131.405 37.7707 132.138 35.5707 132.842 32.96C133.077 32.08 133.429 31.4493 133.898 31.068C134.397 30.6867 135.13 30.496 136.098 30.496C136.773 30.496 137.242 30.584 137.506 30.76C137.77 30.9067 137.902 31.2 137.902 31.64C137.902 32.3733 137.535 34.3827 136.802 37.668C135.981 41.4227 135.57 43.74 135.57 44.62C135.57 45.1773 135.687 45.6173 135.922 45.94C136.157 46.2333 136.465 46.38 136.846 46.38C137.433 46.38 138.122 46.028 138.914 45.324C139.735 44.5907 140.821 43.4173 142.17 41.804C142.522 41.3933 142.918 41.188 143.358 41.188C143.739 41.188 144.033 41.364 144.238 41.716C144.473 42.068 144.59 42.552 144.59 43.168C144.59 44.3413 144.311 45.2507 143.754 45.896C142.493 47.4507 141.129 48.7267 139.662 49.724C138.225 50.7213 136.582 51.22 134.734 51.22C133.326 51.22 132.285 50.6773 131.61 49.592C130.965 48.5067 130.642 46.9813 130.642 45.016C130.143 47.0107 129.395 48.5507 128.398 49.636C127.401 50.692 126.33 51.22 125.186 51.22ZM158.798 36.524C159.443 36.524 159.986 36.7587 160.426 37.228C160.895 37.668 161.13 38.2253 161.13 38.9C161.13 39.2813 161.042 39.692 160.866 40.132C160.397 41.2173 159.737 42.1267 158.886 42.86C158.035 43.5933 157.097 43.96 156.07 43.96C155.249 43.96 154.545 43.6667 153.958 43.08C153.401 42.4933 153.122 41.7013 153.122 40.704C153.122 40.1467 153.151 39.5453 153.21 38.9C153.269 38.4307 153.298 38.108 153.298 37.932C153.298 37.6973 153.239 37.5213 153.122 37.404C153.034 37.2867 152.917 37.228 152.77 37.228C152.359 37.228 151.802 37.7267 151.098 38.724C150.394 39.692 149.69 40.9827 148.986 42.596C148.282 44.2093 147.71 45.9107 147.27 47.7C146.947 49.108 146.581 50.0467 146.17 50.516C145.759 50.9853 145.085 51.22 144.146 51.22C143.031 51.22 142.239 50.6333 141.77 49.46C141.33 48.2867 141.11 46.4093 141.11 43.828C141.11 40.0147 141.653 36.392 142.738 32.96C143.002 32.1093 143.427 31.4933 144.014 31.112C144.63 30.7013 145.481 30.496 146.566 30.496C147.153 30.496 147.563 30.5693 147.798 30.716C148.033 30.8627 148.15 31.1413 148.15 31.552C148.15 32.0213 147.93 33.0773 147.49 34.72C147.197 35.8933 146.962 36.92 146.786 37.8C146.61 38.68 146.463 39.7653 146.346 41.056C147.314 38.5333 148.399 36.48 149.602 34.896C150.805 33.312 151.978 32.1827 153.122 31.508C154.266 30.8333 155.307 30.496 156.246 30.496C157.097 30.496 157.742 30.7453 158.182 31.244C158.651 31.7133 158.886 32.4173 158.886 33.356C158.886 33.9133 158.725 34.9693 158.402 36.524H158.798ZM169.874 52.188C168.349 52.188 167.175 51.836 166.354 51.132C165.562 50.428 165.166 49.636 165.166 48.756C165.166 47.9933 165.445 47.3333 166.002 46.776C166.559 46.2187 167.381 45.94 168.466 45.94C168.847 45.94 169.287 45.984 169.786 46.072C170.314 46.1307 170.71 46.1747 170.974 46.204C170.945 45.4413 170.769 44.7227 170.446 44.048C170.153 43.3733 169.771 42.728 169.302 42.112C168.833 41.4667 168.393 40.9093 167.982 40.44C167.073 42.1707 166.163 43.608 165.254 44.752C164.374 45.896 163.406 46.9813 162.35 48.008C161.822 48.536 161.265 48.8 160.678 48.8C160.209 48.8 159.827 48.6387 159.534 48.316C159.241 47.964 159.094 47.5387 159.094 47.04C159.094 46.4533 159.299 45.9107 159.71 45.412L160.282 44.708C161.895 42.7133 163.113 41.0707 163.934 39.78C164.462 38.9293 164.99 37.9173 165.518 36.744C166.075 35.5707 166.794 33.972 167.674 31.948C168.231 30.6573 169.39 30.012 171.15 30.012C171.971 30.012 172.543 30.0853 172.866 30.232C173.189 30.3787 173.35 30.6133 173.35 30.936C173.35 31.112 173.291 31.3907 173.174 31.772C173.057 32.1533 172.895 32.5347 172.69 32.916C172.162 33.972 171.898 34.8667 171.898 35.6C171.898 36.04 172.045 36.524 172.338 37.052C172.661 37.58 173.145 38.24 173.79 39.032C174.729 40.264 175.433 41.32 175.902 42.2C176.401 43.0507 176.65 43.9893 176.65 45.016C176.65 46.248 176.357 47.4213 175.77 48.536C175.213 49.6213 174.421 50.5013 173.394 51.176C172.367 51.8507 171.194 52.188 169.874 52.188Z" fill="black"/>
</svg>
